<svg enable-background="new 0 0 1000 1000" height="1000" viewBox="0 0 1000 1000" width="1000" xmlns="http://www.w3.org/2000/svg"><path d="m65.5 404.286 353.646-276.458 5.97-.903c18.592-2.81 39.458-4.235 62.02-4.235 72.207 0 153.01 14.548 221.691 39.914 85.184 31.461 150.154 78.404 187.887 135.754l3.786 5.753v183.611c0 14.034-1.893 24.117-6.135 32.693-3.512 7.099-8.566 12.762-14.865 16.725v264.121l-814 124.009z" fill="#4a1700" stroke="#000" stroke-miterlimit="10"/><path d="m88 553.789 765-116.543v342.965l-765 116.543z" fill="#995700"/><path d="m851 439v339.923l-762 116.086v-339.932l762-116.085m3-3.492-768 117v346l768-117z" fill="#995700"/><path d="m507 478.029v355.026l164-24.865v-354.787z" fill="#4a1700"/><path d="m507.978 833.055 192.986 114.852s78.438 38.367 139.258 40.288c60.819 1.921 62.982-57.01 62.982-57.01l-215.292-125.59z" fill="#4a1700"/><path d="m840.222 988.194c-19.146 0-40.486-4.136-58.551-11.347-22.421-8.95-38.312-21.885-45.954-37.405-100.698-203.812-269.911-546.427-271.668-550.882-4.425-11.216-12.237-24.734-16.103-31.167-9.603-4.909-34.374-17.67-59.42-31.376-68.542-37.51-72.629-45.302-75.432-50.992l-21.094-41.7v-23.153-18.899l19.868-2.768 2.126-.282-12.417-70.317-.375-52.351.092-.008c-.614-16.864 11.892-19.517 14.493-19.884 4.758-.671 30.336-3.682 31.422-3.81l11.525-1.356 65.111 132.246 52.202-7.366-35.792-90.18-.513-47.618 56.56-7.285c1.151-.163 2.325-.245 3.486-.245 8.072 0 14.813 3.951 18.969 8.14l146.39 115.527.699.704c8.868 8.931 15.67 23.518 17.302 27.179l23.852 50.069v37.829l-4.457 4.744c-1.796 1.903-39.888 42.231-68.498 68.176 55.914 108.956 277.49 540.186 279.812 544.702l.13.253c2.459 4.996 4.126 10.148 4.976 15.368l.857 1.353-.205 38.398-.186 1.205c-2.04 13.176-8.683 25.075-19.212 34.411-11.084 9.829-25.66 16.187-43.322 18.898-5.135.789-10.745 1.189-16.673 1.189z" fill="#4a1700"/><g stroke="#4a1700"><path d="m690.5 223.32v29.654s-68.027 72.168-90.089 85.507c-22.061 13.339-9.705-26.678-9.705-26.678z" fill="#534741" stroke-miterlimit="2"/><path d="m903.204 931.185c-2.73 17.638-18.013 34.867-48.802 39.594-32.621 5.012-89.387-8.996-103.957-38.588 0 0-269.355-545.17-271.125-549.655-6.675-16.92-19.794-37.669-19.794-37.669s-124.709-62.975-131.662-77.095l-19.364-38.322v-24.429l213.877 93.302 380.896 600.496z" fill="#534741" stroke-miterlimit="10"/><path d="m456.5 42.509v29.548l56.918 143.192 9.043-39.861z" fill="#534741" stroke-miterlimit="2"/><path d="m317.65 65.427.396 50.883 23.297 131.19h7.955l-2.229-47.415z" fill="#534741" stroke-miterlimit="2"/><path d="m468.606 326.7s-133.757-68.665-140.711-82.786l-19.322-38.33 214.03-30.197-65.475-132.987 41.469-5.851c5.3-.749 9.007 3.748 9.007 3.748l146.595 115.689c7.493 7.546 14.094 22.562 14.094 22.562s17.869 36.308 22.036 44.772c4.17 8.465-83.2 83.854-83.2 83.854s-2.852 2.943-.488 7.748c2.366 4.802 292.618 569.701 292.618 569.701 14.691 29.849-14.161 57.705-44.951 62.432-32.621 5.01-84.793-12.477-99.362-42.068 0 0-275.79-565.82-277.92-570.146-2.132-4.326-8.42-8.141-8.42-8.141z" fill="#736357" stroke-miterlimit="10"/><path d="m414.368 190.658-65.236-132.501s-26.418 3.109-31.044 3.762c-4.624.652 28.981 138.234 28.981 138.234z" fill="#736357" stroke-miterlimit="10"/></g><path d="m541.301 212.43 24.365 46.57-113.333 15-21.333-46.855z" fill="#4a1700"/><path d="m444.83 235.42 11.195-1.632s10.443 1.896 16.259 10.811 4.108 18.854 3.331 22.151l-11.17 1.68c1.548-4.698 3.019-14.723-2.369-21.702-5.055-6.547-17.246-11.308-17.246-11.308z" fill="#736357"/><path d="m474.632 231.308 11.195-1.632s10.443 1.896 16.258 10.812c5.816 8.915 4.109 18.854 3.331 22.151l-11.17 1.68c1.547-4.698 3.019-14.723-2.369-21.702-5.054-6.549-17.245-11.309-17.245-11.309z" fill="#736357"/><path d="m503.68 227.187 11.195-1.632s10.443 1.896 16.259 10.812c5.815 8.915 4.108 18.854 3.33 22.15l-11.169 1.68c1.547-4.698 3.019-14.723-2.37-21.702-5.056-6.548-17.245-11.308-17.245-11.308z" fill="#736357"/><path d="m507.232 492.164 11.768-2.497v-139.667s-76.777-13.506-104.532-28.586z" fill="#4a1700"/><path d="m423.847 172.741 52.201-7.366-7.672-19.331c-14.506.555-28.055 1.769-40.321 3.623l-11.242 8.788z" fill="#fff"/><path d="m685.159 179.408 19.841 42.26v37.829l-3.457 4.744c-1.796 1.903-39.388 42.231-67.998 68.176 1.584 3.086 3.361 6.442 5.19 10.029l236.609-31.446c-40-62.537-112.905-105.265-190.185-131.592z" fill="#fff"/><path d="m854 435.5v85.18c18-.68 21-16.234 21-32.957v-176.723l-236.452 31.446c13.985 27.422 34.797 68.958 59.475 117.013z" fill="#ffe05c"/><path d="m388.563 326.016c-68.542-37.51-72.398-45.302-75.201-50.992l-13.084-25.657-212.778 166.133 419.875-55.561s-93.766-20.217-118.812-33.923z" fill="#fff"/><path d="m507.478 492.186-.478-132.247-420 55.561v137.5z" fill="#ffe05c"/><path d="m698 459v-124s-41.347-24-24.158-41.654l-40.172 39.072z" fill="#ffe05c"/><path d="m127.211 410.373 242.898-32.17s-87.104 17.633-154.274 25.914c-31.738 3.911-88.624 6.256-88.624 6.256z" fill="#4a1700"/><path d="m784.176 323.36 93.324-12.36 4.07 5.601c-40.654 4.134-97.394 6.759-97.394 6.759z" fill="#4a1700"/></svg>