<svg viewBox="0 0 594 332.8" xmlns="http://www.w3.org/2000/svg"><g transform="translate(-3 -3.7)"><path d="m158.9 167.9a9 9 0 0 1 -2.6 6.9c-1.7 1.6-4.2 2.4-7.4 2.4h-5.2v-18.3h5.8a9.75 9.75 0 0 1 7 2.4 8.92 8.92 0 0 1 2.4 6.6zm-4 .1c0-3.9-1.7-5.9-5.2-5.9h-2.1v11.9h1.7c3.7 0 5.6-2 5.6-6z"/><path d="m175.2 177.2h-10.5v-18.3h10.5v3.2h-6.7v4h6.2v3.2h-6.2v4.7h6.7z"/><path d="m191.4 158.9h3.9l-6.2 18.3h-4.2l-6.2-18.3h3.9l3.4 10.9c.2.6.4 1.4.6 2.2s.3 1.5.4 1.8a36 36 0 0 1 .9-4z"/><path d="m421.4 168.1a10 10 0 0 1 -2.3 7 10 10 0 0 1 -13 0 11.8 11.8 0 0 1 0-14 10 10 0 0 1 13 0c1.5 1.6 2.3 3.9 2.3 7zm-13.4 0a7.43 7.43 0 0 0 1.2 4.6 4.19 4.19 0 0 0 3.5 1.6c3.1 0 4.6-2.1 4.6-6.2s-1.5-6.2-4.6-6.2a4.06 4.06 0 0 0 -3.5 1.6 7.23 7.23 0 0 0 -1.2 4.6z"/><path d="m439.8 164.6a5.52 5.52 0 0 1 -1.8 4.5 8.17 8.17 0 0 1 -5.3 1.6h-1.7v6.5h-3.9v-18.3h5.9a8.36 8.36 0 0 1 5.1 1.4 5.49 5.49 0 0 1 1.7 4.3zm-8.8 2.9h1.3a4.15 4.15 0 0 0 2.7-.7 2.58 2.58 0 0 0 .9-2.1 2.44 2.44 0 0 0 -.7-2 3.7 3.7 0 0 0 -2.3-.7h-1.9z"/><path d="m456 172.1a4.58 4.58 0 0 1 -1.8 3.9 7.45 7.45 0 0 1 -5 1.4 12.07 12.07 0 0 1 -5.2-1.1v-3.6a26.91 26.91 0 0 0 3.1 1.2 10.38 10.38 0 0 0 2.3.3 3.68 3.68 0 0 0 2-.5 1.58 1.58 0 0 0 .7-1.5 1.69 1.69 0 0 0 -.3-1 3.63 3.63 0 0 0 -.9-.8 12.77 12.77 0 0 0 -2.4-1.2 9.08 9.08 0 0 1 -2.5-1.5 5.5 5.5 0 0 1 -1.3-1.7 5.21 5.21 0 0 1 -.5-2.3 4.64 4.64 0 0 1 1.6-3.8 7 7 0 0 1 4.6-1.4 11.15 11.15 0 0 1 2.7.3 9.87 9.87 0 0 1 2.7 1l-1.3 3a13.26 13.26 0 0 0 -2.4-.8 6.15 6.15 0 0 0 -1.9-.2 2.86 2.86 0 0 0 -1.7.5 1.61 1.61 0 0 0 -.6 1.3 2.92 2.92 0 0 0 .2.9 1.85 1.85 0 0 0 .8.7 22.86 22.86 0 0 0 2.5 1.3 8.51 8.51 0 0 1 3.5 2.5 5.82 5.82 0 0 1 1.1 3.1z"/><path d="m411.1 263a95.16 95.16 0 0 1 -74.9-82.2l-.9-.4a165.55 165.55 0 0 1 -35.3 92.4 166.66 166.66 0 0 0 95 59.6l-5.6-37.1z" fill="#19838e"/><path d="m180.2 75.6a95 95 0 0 1 84.2 94.4 165.8 165.8 0 0 1 35.6-102.9 166.37 166.37 0 0 0 -119.8-63.1l-13.9 35.8z" fill="#19838e"/><path d="m233.1 56.1a3.09 3.09 0 0 1 -2.1 1.8 4.3 4.3 0 0 1 -3-.6l-.8-.4-1.7 3.2-1.9-1 4.7-9 2.9 1.5a4.11 4.11 0 0 1 2.1 2 3.19 3.19 0 0 1 -.2 2.5zm-5.1-.8.6.3a2.24 2.24 0 0 0 1.5.3 1.52 1.52 0 0 0 1-.8 1.8 1.8 0 0 0 .2-1.2 2.25 2.25 0 0 0 -1-.9l-.9-.5z" fill="#fff"/><path d="m232.2 63.8 5.4-8.7 1.8 1.1-4.4 7.1 3.5 2.2-.9 1.5z" fill="#fff"/><path d="m244.8 72.3.8-2.4-3-2.2-2 1.5-1.9-1.4 9-6.1 2.1 1.6-3.2 10.4zm1.5-4.2c.8-2.2 1.2-3.4 1.3-3.7a4.88 4.88 0 0 1 .3-.7c-.5.4-1.7 1.3-3.7 2.8z" fill="#fff"/><path d="m255.1 81.1-2-1.8 1.8-8.7c-.8 1.1-1.5 1.8-1.8 2.3l-3.2 3.6-1.4-1.3 6.8-7.6 2 1.8-1.8 8.6c.8-1 1.4-1.8 1.8-2.2l3.2-3.6 1.4 1.3z" fill="#fff"/><path d="m74.7 161.1a95.09 95.09 0 0 1 94.6-86.2c1.2 0 2.3 0 3.5.1l-13.7-35.2 14-36.1h-3.8a166.35 166.35 0 0 0 -166.1 157.3l35.9 13.9z" fill="#8b9b29"/><path d="m55.7 102.8a2.26 2.26 0 0 0 -.2 2.1 4.3 4.3 0 0 0 1.9 1.9c2 1.1 3.4 1 4.2-.5a7.35 7.35 0 0 0 .8-2.5l1.6.9a6 6 0 0 1 -1 2.7 4.37 4.37 0 0 1 -2.9 2.3 5.89 5.89 0 0 1 -3.9-.9 6.48 6.48 0 0 1 -2.1-1.9 4.9 4.9 0 0 1 -.8-2.4 4.75 4.75 0 0 1 .7-2.5 6.3 6.3 0 0 1 2.1-2.2l1.2 1.5a7 7 0 0 0 -1 .8 5.07 5.07 0 0 0 -.6.7z" fill="#fff"/><path d="m64.1 98.3 3.2 2.2-1.2 1.8-8.4-5.8 1.7-2.4a5.66 5.66 0 0 1 2.4-2.1 2.66 2.66 0 0 1 2.5.5 2.56 2.56 0 0 1 1 1.3 3.53 3.53 0 0 1 .1 1.8c2.8.1 4.5.1 5.4.1l-1.4 2-4.6-.2zm-1.4-1 .4-.6a2.66 2.66 0 0 0 .6-1.4 1.22 1.22 0 0 0 -.6-1 1.17 1.17 0 0 0 -1.1-.2 2.85 2.85 0 0 0 -1.1 1.1l-.4.5z" fill="#fff"/><path d="m75.8 89.4-3.7 4.5-7.9-6.5 3.7-4.5 1.4 1.1-2.3 2.9 1.7 1.4 2.2-2.7 1.4 1.1-2.2 2.7 2 1.7 2.3-2.9z" fill="#fff"/><path d="m82.1 82.6-2.3-1.1-2.6 2.7 1.2 2.2-1.6 1.7-4.8-9.7 1.8-1.9 9.9 4.5zm-3.9-2c-2.1-1-3.2-1.6-3.5-1.8s-.5-.3-.6-.3c.3.5 1.1 1.9 2.3 4z" fill="#fff"/><path d="m88.3 76.9-1.6 1.4-5.6-6.3-2.1 1.9-1.2-1.3 5.8-5.1 1.2 1.3-2.1 1.8z" fill="#fff"/><path d="m97 70-4.7 3.6-6.2-8.1 4.7-3.6 1.1 1.4-3 2.3 1.4 1.8 2.7-2.1 1.1 1.4-2.7 2.1 1.6 2.1 3-2.3z" fill="#fff"/><path d="m159.3 264.5a95 95 0 0 1 -85-94.5v-1.6l-35.2 13.7-36.1-14v1.9a166.29 166.29 0 0 0 156.6 166l13.7-35.4z" fill="#3737aa"/><path d="m335.3 180.5-34.8-13.5-34 13.2-.5.2-1.3.5v.1l-1 .4a95.09 95.09 0 0 1 -94.4 83.8h-2.7l13.8 35.7-13.8 35.6h2.7a166.2 166.2 0 0 0 130.7-63.4v-.1a166.71 166.71 0 0 0 35.3-92.5z" fill="#3fa9f5"/><path d="m235 279.1a3.31 3.31 0 0 1 .3 2.7 4.5 4.5 0 0 1 -2.2 2.1l-.8.4 1.7 3.2-1.9 1-4.8-9 2.9-1.5a4 4 0 0 1 2.9-.6 3.07 3.07 0 0 1 1.9 1.7zm-3.6 3.7.6-.3a2.18 2.18 0 0 0 1.1-1 1.29 1.29 0 0 0 -.1-1.2 1.42 1.42 0 0 0 -.9-.8 1.67 1.67 0 0 0 -1.3.3l-.9.5z" fill="#fff"/><path d="m246.6 280.1-1.9-1.6-3.1 2 .7 2.4-2 1.3-2.6-10.6 2.2-1.4 8.6 6.6zm-3.4-2.9c-1.8-1.5-2.8-2.3-3-2.5l-.5-.5c.2.6.6 2.1 1.3 4.4z" fill="#fff"/><path d="m249 267.7a2.08 2.08 0 0 0 -.9 1.9 4.16 4.16 0 0 0 1 2.4c1.4 1.8 2.8 2.2 4.1 1.1a7.07 7.07 0 0 0 1.7-2l1.1 1.4a6.28 6.28 0 0 1 -1.9 2.1 4 4 0 0 1 -3.5 1 5.46 5.46 0 0 1 -3.3-2.3 5.81 5.81 0 0 1 -1.3-2.6 4.23 4.23 0 0 1 .2-2.5 4.57 4.57 0 0 1 1.6-2.1 8 8 0 0 1 2.8-1.3l.5 1.8-1.2.3a6.47 6.47 0 0 1 -.9.8z" fill="#fff"/><path d="m265.2 264.8-1.8 1.7-4.9-1.3-.2 1.1 2.5 2.7-1.6 1.5-6.9-7.5 1.6-1.5 3.2 3.4-.2-1.5-.3-4.4 1.8-1.6.5 5.7z" fill="#fff"/><path d="m271.4 258-2.3-1.1-2.5 2.8 1.3 2.2-1.6 1.7-5.2-9.5 1.8-2 10 4.2zm-4-1.9c-2.1-1-3.3-1.5-3.5-1.6a1.63 1.63 0 0 1 -.6-.3q.45.75 2.4 3.9z" fill="#fff"/><path d="m272.6 247.5 2.4-3.2 4.2 3.2a9.82 9.82 0 0 1 -.8 1.8 13 13 0 0 1 -1 1.5 4.54 4.54 0 0 1 -3.2 2 5.63 5.63 0 0 1 -3.8-1.4 4.87 4.87 0 0 1 -2.2-3.4 5.37 5.37 0 0 1 1.2-4 7.4 7.4 0 0 1 2.3-2l1 1.6a5.35 5.35 0 0 0 -1.8 1.5 2.63 2.63 0 0 0 -.6 2.4 4.62 4.62 0 0 0 3.9 3.2 2.4 2.4 0 0 0 1.9-1.1 7.46 7.46 0 0 0 .7-1.2l-1.7-1.3-1.2 1.5z" fill="#fff"/><path d="m284.9 239.4-3.1 5-8.6-5.4 3.1-5 1.5.9-2 3.1 1.9 1.2 1.8-2.9 1.5.9-1.8 2.9 2.2 1.4 2-3.1z" fill="#fff"/><path d="m458.8 6.1a164 164 0 0 0 -28.1-2.4 166.19 166.19 0 0 0 -166.3 166.3v3.8l36.1-14 35.1 13.6v-3.5a95 95 0 0 1 95-95 106.91 106.91 0 0 1 12.7.8l21.1-31.3z" fill="#f15a24"/><path d="m327.8 94.9 3.1 2.3-1.3 1.7-8.2-6.1 1.8-2.4a4.75 4.75 0 0 1 2.4-2 2.77 2.77 0 0 1 2.4.6 2.81 2.81 0 0 1 1 1.4 2.76 2.76 0 0 1 0 1.8c2.8.1 4.5.2 5.4.3l-1.4 1.9-4.6-.4zm-1.4-1.1.4-.6a2.38 2.38 0 0 0 .6-1.4 1.22 1.22 0 0 0 -.6-1c-.4-.3-.8-.4-1.1-.2a2.41 2.41 0 0 0 -1.2 1.1l-.4.5z" fill="#fff"/><path d="m339.8 86.4-3.9 4.4-7.7-6.7 3.9-4.4 1.3 1.2-2.4 2.8 1.7 1.5 2.3-2.6 1.3 1.2-2.3 2.6 2 1.7 2.4-2.8z" fill="#fff"/><path d="m341.9 84.2-7.2-7.3 1.5-1.5 5.9 6 2.9-2.9 1.3 1.3z" fill="#fff"/><path d="m352.9 74.2-4.5 3.8-6.6-7.8 4.5-3.8 1.2 1.3-2.8 2.4 1.5 1.7 2.6-2.2 1.2 1.3-2.6 2.2 1.7 2 2.8-2.4z" fill="#fff"/><path d="m360.3 68.6-2-1.5-3 2.2.8 2.4-1.9 1.4-3.1-10.4 2.1-1.6 8.9 6.2zm-3.5-2.7c-1.8-1.4-2.9-2.2-3.1-2.3a2.09 2.09 0 0 0 -.6-.4c.2.6.7 2 1.5 4.3z" fill="#fff"/><path d="m367.6 60.6a2.6 2.6 0 0 1 .3 2.4 4.19 4.19 0 0 1 -1.9 2.1 6.34 6.34 0 0 1 -2.8 1l-1-1.7a6.91 6.91 0 0 0 1.8-.4 3.34 3.34 0 0 0 1.2-.5 1.55 1.55 0 0 0 .8-.8 1 1 0 0 0 -.1-.9.78.78 0 0 0 -.4-.4 1.48 1.48 0 0 0 -.7-.1 9.89 9.89 0 0 0 -1.5.1 4.22 4.22 0 0 1 -1.6 0 3.58 3.58 0 0 1 -1.1-.4 3.82 3.82 0 0 1 -.9-.9 2.41 2.41 0 0 1 -.3-2.3 3.78 3.78 0 0 1 1.8-2 4.24 4.24 0 0 1 1.4-.6 7.58 7.58 0 0 1 1.6-.3l.3 1.8c-.6.1-1 .2-1.4.3s-.7.3-1 .4a2.31 2.31 0 0 0 -.7.7 1.06 1.06 0 0 0 .5 1.2 1.08 1.08 0 0 0 .6.1 10.62 10.62 0 0 0 1.5-.1 5.92 5.92 0 0 1 2.4.1 2.33 2.33 0 0 1 1.2 1.2z" fill="#fff"/><path d="m376.8 58.9-5.2 2.7-4.7-9.1 5.2-2.7.8 1.6-3.3 1.7 1 2 3.1-1.6.8 1.6-3.1 1.6 1.2 2.3 3.3-1.7z" fill="#fff"/><path d="m594.5 198.8a171.34 171.34 0 0 0 2.5-28.8 166.34 166.34 0 0 0 -131.3-162.6l5.7 38.7-20.9 31a95 95 0 0 1 75.2 93 103.58 103.58 0 0 1 -.8 12.5l32.2 21.8z" fill="#9263ab"/><path d="m516.7 69.9a2.14 2.14 0 0 0 -2-.5 4.82 4.82 0 0 0 -2.2 1.5c-1.5 1.7-1.6 3.2-.3 4.3a7 7 0 0 0 2.3 1.3l-1.2 1.4a7 7 0 0 1 -2.5-1.4 4.29 4.29 0 0 1 -1.7-3.2 5.72 5.72 0 0 1 1.6-3.7 7.28 7.28 0 0 1 2.2-1.8 3.59 3.59 0 0 1 2.5-.3 4.55 4.55 0 0 1 2.4 1.2 5.77 5.77 0 0 1 1.8 2.5l-1.7.9a10.91 10.91 0 0 0 -.6-1.1 1.46 1.46 0 0 0 -.6-1.1z" fill="#fff"/><path d="m525.5 83.1a5.21 5.21 0 0 1 -3.7 1.8 5.51 5.51 0 0 1 -5.1-5.1 5.81 5.81 0 0 1 1.9-3.6 5.21 5.21 0 0 1 3.7-1.8 5.51 5.51 0 0 1 5.1 5.1 5.35 5.35 0 0 1 -1.9 3.6zm-5.2-5.3a4.46 4.46 0 0 0 -1.4 2.3 2.28 2.28 0 0 0 .7 2c1.2 1.2 2.6 1 4.3-.6s1.9-3 .6-4.3a2.37 2.37 0 0 0 -2-.8 5.65 5.65 0 0 0 -2.2 1.4z" fill="#fff"/><path d="m529.5 96-1.7-2.2 3.3-8.3a21.28 21.28 0 0 1 -2.2 1.9l-3.8 3-1.2-1.5 8-6.3 1.7 2.1-3.2 8.2q1.5-1.35 2.1-1.8l3.8-3 1.2 1.5z" fill="#fff"/><path d="m532.7 100.5-1.2-1.8 8.4-5.7 3.3 4.8-1.5 1-2.1-3.1-2.2 1.5 1.9 2.9-1.5 1-1.9-2.9z" fill="#fff"/><path d="m536.3 106.1 8.8-5.2 1.1 1.9-8.8 5.2z" fill="#fff"/><path d="m546 111.8 1.8 3.6-4.7 2.4a7.89 7.89 0 0 1 -1.2-1.5l-.9-1.5a4.72 4.72 0 0 1 -.4-3.8 5.3 5.3 0 0 1 2.9-2.8 5.51 5.51 0 0 1 4.1-.5 5.59 5.59 0 0 1 3 2.9 7.41 7.41 0 0 1 .8 3l-1.9.1a5.93 5.93 0 0 0 -.5-2.3 2.78 2.78 0 0 0 -1.9-1.6 3.52 3.52 0 0 0 -2.6.4 4.46 4.46 0 0 0 -2 1.8 2.45 2.45 0 0 0 .1 2.2c.2.4.5.8.7 1.2l1.9-1-.9-1.7z" fill="#fff"/><path d="m556.6 125-6.1 2.4a3.64 3.64 0 0 1 -2 .3 3.15 3.15 0 0 1 -1.7-.9 5.16 5.16 0 0 1 -1.2-1.9 4.51 4.51 0 0 1 -.2-3.2 3.66 3.66 0 0 1 2.2-2l6.1-2.4.8 2-5.8 2.3a2.33 2.33 0 0 0 -1.4 1.1 2.06 2.06 0 0 0 .1 1.7c.3.7.6 1.1 1.1 1.2a2.37 2.37 0 0 0 1.8-.2l5.8-2.3z" fill="#fff"/><path d="m552.5 132.9-3.8 1.1-.6-2.1 9.8-2.9.8 2.9a5.05 5.05 0 0 1 .1 3.2 2.62 2.62 0 0 1 -1.9 1.6 2.48 2.48 0 0 1 -1.7 0 3.32 3.32 0 0 1 -1.4-1c-1.8 2.1-2.9 3.5-3.4 4.1l-.7-2.3 3.1-3.4zm1.7-.5.2.7a2.37 2.37 0 0 0 .8 1.4 1.55 1.55 0 0 0 1.2.2 1 1 0 0 0 .8-.8 3 3 0 0 0 -.1-1.6l-.2-.6z" fill="#fff"/><path d="m552.1 147.6-1.2-5.7 10-2.1 1.2 5.7-1.7.4-.8-3.6-2.2.5.7 3.4-1.7.4-.7-3.4-2.6.5.8 3.6z" fill="#fff"/><path d="m523.7 189.7a95.22 95.22 0 0 1 -93 75.4 101.93 101.93 0 0 1 -12.4-.8l-21.9 32.7 5.6 36.9a169.25 169.25 0 0 0 28.7 2.5 166.44 166.44 0 0 0 162.5-130.6l-37.6 5.5z" fill="#aa2e2e"/><g fill="#fff"><path d="m464.4 299.4-4.5-7.1h-.1c.5 1.5.8 2.6 1 3.1l1.2 4.6-1.9.5-2.7-9.8 2.8-.8 4.4 6.9.4-8.2 2.8-.8 2.7 9.8-1.9.5-1.3-4.7c-.1-.2-.1-.5-.2-.8s-.2-1.1-.5-2.3h-.1l-.5 8.4z"/><path d="m481.6 288.2a5.37 5.37 0 0 1 .2 4.1 5 5 0 0 1 -2.9 2.6 4.21 4.21 0 0 1 -3.8 0 6.6 6.6 0 0 1 -2.8-7.3 5 5 0 0 1 2.9-2.6 4.21 4.21 0 0 1 3.8 0 6.15 6.15 0 0 1 2.6 3.2zm-7 2.7a4.26 4.26 0 0 0 1.5 2.2 2.21 2.21 0 0 0 2.1.1c1.6-.6 2-2 1.2-4.1s-2-2.9-3.6-2.3a2.25 2.25 0 0 0 -1.5 1.5 4.23 4.23 0 0 0 .3 2.6z"/><path d="m495 287.3-2.5 1.2-7.4-4.9h-.1a27.61 27.61 0 0 1 1.4 2.5l2.2 4.3-1.7.9-4.6-9.1 2.4-1.2 7.4 4.8c-.7-1.2-1.1-2-1.4-2.5l-2.2-4.3 1.7-.9z"/><path d="m498.5 285.3-5.2-8.8 1.9-1.1 5.2 8.8z"/><path d="m507 279.8-1.8 1.2-4.7-6.9-2.3 1.6-1-1.5 6.4-4.3 1 1.5-2.3 1.6z"/><path d="m515.8 266.6a5.31 5.31 0 0 1 1.5 3.8 4.76 4.76 0 0 1 -1.9 3.3 4.41 4.41 0 0 1 -3.6 1.2 5.46 5.46 0 0 1 -3.4-2.2 5.31 5.31 0 0 1 -1.5-3.8 4.76 4.76 0 0 1 1.9-3.3 4.41 4.41 0 0 1 3.6-1.2 4.93 4.93 0 0 1 3.4 2.2zm-5.8 4.7a4.22 4.22 0 0 0 2.1 1.6 2 2 0 0 0 2-.6c1.3-1.1 1.3-2.5-.2-4.3s-2.8-2.1-4.2-1a2.28 2.28 0 0 0 -1 1.9 7.18 7.18 0 0 0 1.3 2.4z"/><path d="m520.6 263.7 2.7 2.8-1.5 1.5-7.1-7.3 2.1-2.1a4.9 4.9 0 0 1 2.7-1.6 3 3 0 0 1 3.1 2.4 3.72 3.72 0 0 1 -.2 1.8c2.7.6 4.5.9 5.3 1.1l-1.7 1.7-4.5-1.1zm-1.2-1.3.5-.5c.5-.5.8-.9.8-1.3a1.38 1.38 0 0 0 -1.5-1.5 3.05 3.05 0 0 0 -1.3.9l-.5.5z"/><path d="m70.22 247.14 2.26 2.77c1.37 1.67 2 3.35.44 4.61a2.4 2.4 0 0 1 -2.61.36 2.39 2.39 0 0 1 -.7 3c-1.64 1.35-3.52.56-5-1.19l-2.46-3zm-4.33 8.31c.82 1 1.59 1.21 2.32.61s.58-1.32-.24-2.32l-.83-1-2.09 1.71zm3.29-3c.73.88 1.42 1 2 .49s.52-1.12-.17-2l-.71-.87-1.83 1.5z"/><path d="m72.67 258.77 4-3.9 1.64 1.69-4.18 4.07c-1.47 1.42-1.52 2.37-.71 3.21s1.79.84 3.26-.59l4.18-4.07 1.59 1.63-4 3.9c-2.5 2.44-4.59 2.48-6.47.55s-1.82-4.05.69-6.49z"/><path d="m84.64 262.79 1.75 1.58-7 7.73-1.75-1.58z"/><path d="m88.66 266.37 1.84 1.48-5.31 6.58 3.21 2.57-1.24 1.54-5-4.06z"/><path d="m95.54 271.82 2.46 1.67c2.62 1.8 3.42 4.26 1.39 7.22s-4.67 3.18-7.19 1.45l-2.53-1.75zm-2.54 8.62c1.46 1 2.94 1 4.35-1.1s.87-3.37-.59-4.37l-.37-.26-3.76 5.47z"/></g></g></svg>