<svg viewBox="0 0 821.11 482.36" xmlns="http://www.w3.org/2000/svg" xmlns:xlink="http://www.w3.org/1999/xlink"><linearGradient id="a" gradientUnits="userSpaceOnUse" x1="663.6529" x2="632.2096" y1="545.95170000001" y2="506.8917"><stop offset=".06" stop-color="#0cb0f2"/><stop offset=".21" stop-color="#10adf2"/><stop offset=".37" stop-color="#1ea5f3"/><stop offset=".54" stop-color="#3497f5"/><stop offset=".71" stop-color="#5283f7"/><stop offset=".88" stop-color="#796af9"/><stop offset=".97" stop-color="#905cfb"/></linearGradient><linearGradient id="b" gradientTransform="matrix(19.53 0 0 19.53 -18.53 -32535.72)" gradientUnits="userSpaceOnUse" x1="33.1" x2="33.9" y1="1695.63" y2="1693.76"><stop offset=".06" stop-color="#0cb0f2"/><stop offset=".2" stop-color="#0db2ee"/><stop offset=".35" stop-color="#12b7e0"/><stop offset=".51" stop-color="#19c0ca"/><stop offset=".68" stop-color="#23ccac"/><stop offset=".85" stop-color="#30dc85"/><stop offset=".97" stop-color="#3bea62"/></linearGradient><linearGradient id="c" x1="34.2" x2="35.78" xlink:href="#b" y1="1693.17" y2="1691.14"/><linearGradient id="d" gradientUnits="userSpaceOnUse" x1="661.5046" x2="661.5046" y1="504.5481" y2="567.0441"><stop offset="0"/><stop offset="1"/></linearGradient><g transform="translate(-378.5 -410.64)"><path d="m496 520.12h78.75v-13.12l26.25 26.25-26.25 26.25v-13.12h-78.75z" fill="#fff"/><path d="m476.61 529.05-43.61-43.66a6.43 6.43 0 0 0 -9.11 0l-9.06 9.07 11.5 11.5a7.64 7.64 0 0 1 9.68 9.75l11.09 11.08a7.66 7.66 0 1 1 -4.59 4.32l-10.34-10.34v27.23a7.66 7.66 0 1 1 -6.3-.22v-27.48a7.76 7.76 0 0 1 -2.51-1.67 7.67 7.67 0 0 1 -1.65-8.38l-11.34-11.34-29.93 29.93a6.43 6.43 0 0 0 0 9.11l43.66 43.66a6.43 6.43 0 0 0 9.11 0l43.45-43.45a6.43 6.43 0 0 0 -.05-9.11z" fill="#f05133"/><path d="m675.86 783.25a24.88 24.88 0 0 0 -11.59 1.82c-3.86-13.75-11.25-19.43-11.59-19.77a2.43 2.43 0 1 0 -2.95 3.86c.11 0 6.82 5.34 10.11 18.29a22.18 22.18 0 0 0 -4 3.19l-.34.34c-4.2 4.2-11.47 2.5-13.75 0a67.84 67.84 0 0 0 -5.57-6 7.61 7.61 0 0 1 6.14-5.68 2.1 2.1 0 1 0 -.91-4.09 11.88 11.88 0 0 0 -8.63 6.93c-4.44-3.29-9.55-5.56-14.78-4.88a2.41 2.41 0 0 0 .68 4.77c7.73-1 15.91 7.16 21.14 14.09 0 .11.11.11.11.23 1 1.48 4.1 6.7 3.75 16.59v.23c-.34 12-.9 27.84-2.15 28.86-1.94 1.82 16 3 13.18 0-1.82-1.82-2.28-18.07-2.39-30 0-.68 0-10.34 4.77-15.91.23-.23.34-.45.57-.68a26.51 26.51 0 0 1 6-4.89 21.11 21.11 0 0 1 11.82-2.61 2.27 2.27 0 0 0 2.5-2.27 2.34 2.34 0 0 0 -2.12-2.42z" fill="#fff"/><path d="m624.61 816.2c-15.22 0-27.61-13-27.61-28.86a29.15 29.15 0 0 1 14.55-25.34 27.22 27.22 0 0 1 -.12-3.18c-.11-15.8 12.27-28.64 27.39-28.64a27.37 27.37 0 0 1 23.07 13h1.59c18.41 0 33.52 15.68 33.52 34.88s-15.11 35-33.52 35a32 32 0 0 1 -5.68-.45 2.33 2.33 0 0 1 -1.82-2.73 2.24 2.24 0 0 1 2.72-1.88 33.78 33.78 0 0 0 4.89.46c15.91 0 28.86-13.64 28.86-30.34s-13-30.34-28.86-30.34a21.69 21.69 0 0 0 -2.61.11l-1.48.11-.68-1.36a23.56 23.56 0 0 0 -20-11.82c-12.62 0-22.84 10.8-22.84 24.09a24.45 24.45 0 0 0 .34 4.09l.23 1.71-1.48.68a24.39 24.39 0 0 0 -13.41 21.93c0 13.3 10.34 24.21 23.07 24.21a20.14 20.14 0 0 0 6.82-1.14 2.28 2.28 0 0 1 3 1.48 2.37 2.37 0 0 1 -1.48 3 26.54 26.54 0 0 1 -8.46 1.33z" fill="#fff"/><path d="m831 566.39c8-5.11 17.33-13.93 13.77-24.29-1.95-5.65-4.62-10.48-5-16.59a37.26 37.26 0 0 1 2.26-15.19c7.14-19.17 28.37-28.24 47.57-22.45 17.77 5.34 30 26 22.63 44-4.26 10.38-6.15 18.39 3.33 26.46 2.55 2.19 8.8 5.47 8.78 9.38 0 5.11-10-1.08-11.08-2 1.27 2.21 13.84 15.34 5.84 16.26-7.36.85-13.86-9.43-18.3-13.85-7.43-7.41-6.14 9-6.17 12.38-.06 5.36-3.84 16.2-10.62 9.14-5.61-5.83-3.49-15.14-7.38-21.61-4.27-7.1-11.37 7.1-13.15 9.69-2 2.89-11.93 16.95-15.84 9.46-3.2-6.08 1.92-15.6 4.43-21.1-.92 2-7.42 4.95-9.32 5.91a25.36 25.36 0 0 1 -13.48 3.11c-10-.72-2.33-6 1.7-8.65z" fill="#2f93e0"/><path d="m647.37 486.94a19.79 19.79 0 0 0 -4.32-1.57c-20.08-4.76-35 14.92-26.8 32.81.08.08 14.61 32 17 37 0 0 26.72-12.27 32.19-24.84 5.06-11.72-3.48-33.11-5-36.32z" fill="url(#a)"/><path d="m707.73 522.48a19.05 19.05 0 0 0 -6.72-6.24c-.08 0-18.83-10.32-18.83-10.32s-64.36 37.32-64.43 37.42c-7.27 8.28-8.91 21.4-.55 32.81a19.65 19.65 0 0 0 10.15 7.18 25.34 25.34 0 0 0 19.92-1.56c.16-.08 52.89-28 53-28.2 10.31-5.39 15.08-19.13 7.42-31.09z" fill="#0cb0f2"/><path d="m641.51 514.29-17.19 21.09-6.66 8c-7.26 8.28-8.9 21.4-.55 32.81a19.68 19.68 0 0 0 10.16 7.18 25.54 25.54 0 0 0 20-1.56s1.32-.7 3.59-1.95c7.14-3.86 16.99-29.86 23.71-49.86z" fill="url(#b)"/><path d="m668.52 534.59 13.66-28.85a.08.08 0 0 1 .08-.07c.08-.24 1.17-3.05 1.25-3.21a13.28 13.28 0 0 0 -1.41-12.46 11.16 11.16 0 0 0 -7-4.92 12.83 12.83 0 0 0 -13.36 4.46c-.07.07-3 3.51-3 3.51l-21.86 26.95z" fill="url(#c)"/><path d="m630.24 503.35h62.49v62.49h-62.49z" fill="url(#d)"/><path d="m644.92 517.17h-8.43v-5.47h22.88v5.47h-8.37v21.55h-6.09zm14.45 8.1a13.8 13.8 0 0 1 14.14-14.14 14 14 0 0 1 10.7 4.22l-3.82 4.38c-2.11-1.88-4.22-3.05-7-3.05-4.53 0-7.89 3.83-7.89 8.44v.07c0 4.69 3.21 8.52 7.89 8.52 3.13 0 5-1.25 7.11-3.2l3.83 3.82a13.88 13.88 0 0 1 -11.09 4.85 13.6 13.6 0 0 1 -13.91-13.29v-.62m-22.88 28.07h22.88v4.14h-22.84z" fill="#fff"/><path d="m1040.66 424.85 40.87-5.57v39.42l-40.85.23zm40.85 38.39v39.45l-40.85-5.61v-34.08zm5-44.69 54.19-7.91v47.56l-54.19.43zm54.2 45.06v47.39l-54.19-7.65-.07-39.78z" fill="#00adef"/><path d="m660.62 601.75v78.75h13.13l-26.25 26.25-26.25-26.25h13.13v-78.75z" fill="#fff"/></g><text fill="#fff" font-family="AndaleMono, Andale Mono" font-size="18" transform="translate(188.84 458)">{1.0.2-alpha.4}</text><path d="m725 520.12h78.75v-13.12l26.25 26.25-26.25 26.25v-13.12h-78.75z" fill="#fff" transform="translate(-378.5 -410.64)"/><path d="m927.91 491.75 73-29.5-4.91-12.17 34.18 14.5-14.51 34.17-4.91-12.17-73 29.51z" fill="#fff" transform="translate(-378.5 -410.64)"/><path d="m948.3 565 68.51 38.82 6.47-11.42 9.9 35.78-35.78 9.82 6.47-11.42-68.52-38.83z" fill="#fff" transform="translate(-378.5 -410.64)"/><text fill="#fff" font-family="AndaleMono, Andale Mono" font-size="18" transform="translate(673.05 121)">Staging</text><path d="m1040.66 597.85 40.87-5.57v39.42l-40.85.23zm40.85 38.39v39.45l-40.85-5.61v-34.08zm5-44.69 54.19-7.91v47.56l-54.19.43zm54.2 45.06v47.39l-54.19-7.65-.07-39.78z" fill="#00adef" transform="translate(-378.5 -410.64)"/><text fill="#fff" font-family="AndaleMono, Andale Mono" font-size="18" transform="translate(656.84 295)">Production</text></svg>