<svg viewBox="0 0 140 140" xmlns="http://www.w3.org/2000/svg"><path d="m19.13 102.13c9.35-6 20.33-16.34 16.16-28.5-2.29-6.63-5.42-12.3-5.84-19.46a43.84 43.84 0 0 1 2.66-17.83c8.38-22.49 33.29-33.14 55.81-26.34 20.85 6.26 35.2 30.48 26.56 51.58-5 12.18-7.22 21.58 3.9 31.05 3 2.57 10.33 6.42 10.31 11 0 6-11.74-1.27-13-2.31 1.49 2.6 16.24 18 6.85 19.08-8.64 1-16.27-11.06-21.47-16.25-8.72-8.7-7.21 10.55-7.25 14.53-.06 6.28-4.5 19-12.46 10.72-6.58-6.84-4.09-17.76-8.66-25.36-5-8.33-13.34 8.33-15.42 11.37-2.33 3.4-14 19.89-18.59 11.1-3.76-7.13 2.25-18.3 5.2-24.75-1.08 2.34-8.71 5.8-10.94 6.93-5 2.54-10.15 4.05-15.82 3.65-11.73-.84-2.73-7.07 2-10.15z" fill="#2f93e0"/></svg>